<svg height="210" width="500" xmlns="http://www.w3.org/2000/svg" version="1.1"><title>Example triangle01- simple example of a 'path'</title><desc>A path that draws a triangle</desc><defs><pattern id="diagonalHatch" patternUnits="userSpaceOnUse" width="10" height="10" patternTransform="rotate(45 2 2)"><path d="M -1,2 l 18,0" stroke="lightgray" stroke-width="1"></path></pattern></defs><path d="M 50 200 L 50 80 L 170 80 L 170 140 L 422 140 L 422 200z" fill="white" stroke="red" stroke-width="1"></path><path d="M50,200 L50,116 C50,96.1177490072 66.1177490072,80 86,80 L170,80 L170,116 C170,129.2548339952 180.7451660048,140 194,140 L422,140 L422,200z" fill="url(#diagonalHatch)" stroke="black" stroke-width="2"></path><text x="50" y="200" font-size="12" fill="red">0</text><text x="50" y="80" font-size="12" fill="red">1</text><text x="170" y="80" font-size="12" fill="red">2</text><text x="170" y="140" font-size="12" fill="red">3</text><text x="422" y="140" font-size="12" fill="red">4</text><text x="422" y="200" font-size="12" fill="red">5</text><circle cx="86" cy="116" r="4" stroke-width="0" fill="red"></circle><circle cx="194" cy="116" r="4" stroke-width="0" fill="red"></circle><g><line x1="50" y1="75" x2="50" y2="40" style="stroke:lightblue;stroke-width:1"></line><line x1="422" y1="135" x2="422" y2="40" style="stroke:lightblue;stroke-width:1"></line><line x1="50" y1="45" x2="422" y2="45" style="stroke:lightblue;stroke-width:1"></line><text x="216.5" y="40" fill="lightblue" font-size="12">310 mm</text><g></g></g></svg>